<?xml version="1.0" encoding="UTF-8"?>
<svg version="1.1" xmlns="http://www.w3.org/2000/svg" width="420" height="200">
<path d="M0 0 C0.75973618 -0.0066568 1.51947235 -0.0133136 2.30223083 -0.02017212 C3.9066223 -0.03025908 5.51105538 -0.03499037 7.11547852 -0.03466797 C9.52759275 -0.03900674 11.93782236 -0.07526926 14.34960938 -0.11328125 C23.98547189 -0.18104243 31.93028097 0.77735648 40.99609375 4.3359375 C40.99609375 4.9959375 40.99609375 5.6559375 40.99609375 6.3359375 C41.69734375 6.4390625 42.39859375 6.5421875 43.12109375 6.6484375 C46.38747022 7.42952753 49.04327895 8.75652493 51.99609375 10.3359375 C51.99609375 10.9959375 51.99609375 11.6559375 51.99609375 12.3359375 C52.5271875 12.39007813 53.05828125 12.44421875 53.60546875 12.5 C57.1527291 13.74038189 59.5536694 16.18187987 62.24609375 18.7109375 C62.82238525 19.24968506 63.39867676 19.78843262 63.99243164 20.34350586 C73.43493905 29.38634442 82.35479378 41.21009436 84.625 54.33984375 C84.98536995 56.58508382 84.98536995 56.58508382 86.18359375 59.5859375 C87.08118437 62.62393652 86.88003474 64.33053813 85.99609375 67.3359375 C86.65609375 67.3359375 87.31609375 67.3359375 87.99609375 67.3359375 C87.99609375 73.2759375 87.99609375 79.2159375 87.99609375 85.3359375 C87.33609375 85.3359375 86.67609375 85.3359375 85.99609375 85.3359375 C86.20234375 86.3878125 86.40859375 87.4396875 86.62109375 88.5234375 C87.00334938 92.40970305 86.61473281 93.90823127 84.99609375 97.3359375 C84.99609375 98.3259375 84.99609375 99.3159375 84.99609375 100.3359375 C84.33609375 100.3359375 83.67609375 100.3359375 82.99609375 100.3359375 C83.08890625 101.41875 83.08890625 101.41875 83.18359375 102.5234375 C82.95581878 105.94006199 81.80232909 107.44850495 79.99609375 110.3359375 C79.05397155 112.12517797 78.116586 113.91691934 77.18359375 115.7109375 C73.18135336 123.06320132 68.44919133 128.11853946 61.99609375 133.3359375 C60.85140625 134.5425 60.85140625 134.5425 59.68359375 135.7734375 C52.04274271 143.05890012 41.40815427 149.13852039 30.99609375 151.3359375 C30.00609375 151.0059375 29.01609375 150.6759375 27.99609375 150.3359375 C27.66609375 150.9959375 27.33609375 151.6559375 26.99609375 152.3359375 C24.30859375 152.8984375 24.30859375 152.8984375 20.99609375 153.3359375 C20.08859375 153.5215625 19.18109375 153.7071875 18.24609375 153.8984375 C9.29695111 155.10312978 0.84098018 153.88864484 -8.00390625 152.3359375 C-8.00390625 151.6759375 -8.00390625 151.0159375 -8.00390625 150.3359375 C-8.50792969 150.55894531 -9.01195312 150.78195313 -9.53125 151.01171875 C-13.26120617 151.50079673 -16.20196093 149.96070778 -19.56640625 148.5234375 C-20.23865234 148.24951172 -20.91089844 147.97558594 -21.60351562 147.69335938 C-24.62320591 146.44290173 -27.27658534 145.15415144 -30.00390625 143.3359375 C-30.00390625 142.6759375 -30.00390625 142.0159375 -30.00390625 141.3359375 C-30.85662109 141.18898437 -30.85662109 141.18898437 -31.7265625 141.0390625 C-42.07055087 137.84537827 -50.47261906 126.00765176 -56.00390625 117.3359375 C-56.73828125 114.99609375 -56.73828125 114.99609375 -57.00390625 113.3359375 C-52.12890625 115.2109375 -52.12890625 115.2109375 -51.00390625 116.3359375 C-51.28008158 114.39518889 -51.28008158 114.39518889 -52.00390625 112.3359375 C-54.75438006 110.16345396 -54.75438006 110.16345396 -57.50390625 110.0859375 C-60.00390625 109.3359375 -60.00390625 109.3359375 -61.75390625 106.4609375 C-63.66891361 101.6734191 -64.30898043 97.61270207 -64.72265625 92.515625 C-64.77506115 90.36118145 -64.77506115 90.36118145 -66.00390625 89.3359375 C-68.22076928 92.66123205 -67.99099324 95.36330579 -67.8828125 99.2578125 C-68.07875929 102.62051229 -69.57909366 105.32191087 -71.00390625 108.3359375 C-71.35815776 109.62202449 -71.69219078 110.91388416 -72.00390625 112.2109375 C-72.33390625 113.2421875 -72.66390625 114.2734375 -73.00390625 115.3359375 C-74.48890625 115.8309375 -74.48890625 115.8309375 -76.00390625 116.3359375 C-75.67390625 117.3259375 -75.34390625 118.3159375 -75.00390625 119.3359375 C-75.47828125 119.7690625 -75.95265625 120.2021875 -76.44140625 120.6484375 C-78.24077582 122.35903363 -78.24077582 122.35903363 -79.00390625 125.3359375 C-83.08870016 129.93133065 -87.92780978 133.87541594 -93.00390625 137.3359375 C-93.66390625 137.3359375 -94.32390625 137.3359375 -95.00390625 137.3359375 C-95.00390625 137.9959375 -95.00390625 138.6559375 -95.00390625 139.3359375 C-97.04267574 140.15568013 -99.085067 140.9664182 -101.12890625 141.7734375 C-102.83433594 142.45212891 -102.83433594 142.45212891 -104.57421875 143.14453125 C-107.76952979 144.25451971 -110.67304074 144.82116738 -114.00390625 145.3359375 C-115.06098785 145.67240799 -116.11806946 146.00887848 -117.20718384 146.35554504 C-121.15978346 147.37618823 -124.71801368 147.57551954 -128.75927734 147.48706055 C-129.4999646 147.47920532 -130.24065186 147.4713501 -131.00378418 147.46325684 C-133.42856008 147.43489808 -135.85280429 147.39159863 -138.27734375 147.34765625 C-139.96887162 147.3240008 -141.66041062 147.3011296 -143.35195923 147.27900696 C-146.88402274 147.23063515 -150.41588278 147.17529666 -153.94775391 147.11450195 C-158.48404056 147.03662842 -163.02039133 146.97240652 -167.55695152 146.91284466 C-171.04328786 146.86624542 -174.52953079 146.81446097 -178.01576614 146.76087379 C-179.68957424 146.73540421 -181.36340064 146.71111012 -183.03724289 146.687994 C-185.36657774 146.65466235 -187.69570661 146.61482488 -190.02490234 146.57299805 C-190.72096588 146.56410049 -191.41702942 146.55520294 -192.13418579 146.54603577 C-196.88939815 146.4504456 -196.88939815 146.4504456 -198.00390625 145.3359375 C-198.10247945 143.54130982 -198.13022737 141.74276725 -198.13088989 139.94543457 C-198.13370972 138.77593765 -198.13652954 137.60644073 -198.13943481 136.40150452 C-198.13741058 135.10691818 -198.13538635 133.81233185 -198.13330078 132.47851562 C-198.1346548 131.11054945 -198.13643474 129.74258364 -198.13861084 128.37461853 C-198.14318506 124.64951376 -198.14139566 120.92443656 -198.13823175 117.19933128 C-198.13570809 113.30935972 -198.13804571 109.41939059 -198.13961792 105.52941895 C-198.1414396 98.99568252 -198.13903335 92.46195737 -198.13427734 85.92822266 C-198.12883473 78.36366067 -198.13059738 70.79912564 -198.13610375 63.2345643 C-198.14063493 56.75135266 -198.1412854 50.26814915 -198.13866508 43.78493643 C-198.13710233 39.90773165 -198.13690847 36.03053955 -198.14020157 32.15333557 C-198.14308036 28.50906163 -198.14110445 24.86482259 -198.13530731 21.22055244 C-198.13334413 19.23715895 -198.13633356 17.25376252 -198.13943481 15.27037048 C-198.13661499 14.10087357 -198.13379517 12.93137665 -198.13088989 11.72644043 C-198.13051287 10.70362724 -198.13013584 9.68081406 -198.12974739 8.62700653 C-198.00390625 6.3359375 -198.00390625 6.3359375 -197.00390625 5.3359375 C-194.85218052 5.2469184 -192.69749202 5.22908426 -190.54394531 5.23828125 C-189.53164856 5.24047165 -189.53164856 5.24047165 -188.49890137 5.2427063 C-187.02835616 5.2465214 -185.55781561 5.25264745 -184.0872879 5.26077271 C-181.75868311 5.27349678 -179.43013506 5.28004237 -177.10150146 5.28491211 C-171.3137318 5.29831158 -165.52601551 5.32244132 -159.73828125 5.34631348 C-154.85622205 5.3660606 -149.97418324 5.38169944 -145.09209442 5.39187622 C-142.80047473 5.39835008 -140.50893847 5.41086229 -138.21734619 5.42358398 C-136.80537997 5.42721847 -135.39341298 5.43056995 -133.98144531 5.43359375 C-132.13731049 5.44144897 -132.13731049 5.44144897 -130.25592041 5.44946289 C-127.37021148 5.34872494 -124.80481243 5.00620019 -122.00390625 4.3359375 C-122.00390625 4.9959375 -122.00390625 5.6559375 -122.00390625 6.3359375 C-120.54984375 5.995625 -120.54984375 5.995625 -119.06640625 5.6484375 C-114.24140475 4.94519842 -110.45219656 6.62884454 -106.00390625 8.3359375 C-105.03453125 8.6040625 -104.06515625 8.8721875 -103.06640625 9.1484375 C-95.35861193 12.13717407 -87.45632453 17.0458572 -82.00390625 23.3359375 C-82.00390625 24.3259375 -82.00390625 25.3159375 -82.00390625 26.3359375 C-80.51890625 26.8309375 -80.51890625 26.8309375 -79.00390625 27.3359375 C-77.29336238 29.55186933 -76.25068901 31.79784402 -75.00390625 34.3359375 C-75.49890625 35.3259375 -75.49890625 35.3259375 -76.00390625 36.3359375 C-75.34390625 36.3359375 -74.68390625 36.3359375 -74.00390625 36.3359375 C-66.85497008 53.48487367 -66.85497008 53.48487367 -68.00390625 62.3359375 C-67.34390625 62.3359375 -66.68390625 62.3359375 -66.00390625 62.3359375 C-65.73578125 61.7584375 -65.46765625 61.1809375 -65.19140625 60.5859375 C-64.00390625 58.3359375 -64.00390625 58.3359375 -62.44140625 56.4609375 C-60.59002432 53.72411205 -60.27151455 51.61413922 -60.00390625 48.3359375 C-60.22949219 47.54832031 -60.45507812 46.76070312 -60.6875 45.94921875 C-61.11912431 42.38432171 -59.98360185 41.25818378 -57.81640625 38.4609375 C-55.65226347 35.58535408 -53.66698855 32.87142822 -52.06640625 29.6484375 C-49.7658807 25.95365405 -47.23174748 23.66174885 -43.90234375 20.9140625 C-41.85486311 19.26804496 -41.85486311 19.26804496 -39.62890625 16.8984375 C-38.00390625 15.3359375 -38.00390625 15.3359375 -36.00390625 15.3359375 C-36.00390625 14.6759375 -36.00390625 14.0159375 -36.00390625 13.3359375 C-35.01390625 13.3359375 -34.02390625 13.3359375 -33.00390625 13.3359375 C-33.00390625 12.6759375 -33.00390625 12.0159375 -33.00390625 11.3359375 C-31.37325861 10.27822011 -29.70109752 9.28320704 -28.00390625 8.3359375 C-27.01390625 7.6759375 -26.02390625 7.0159375 -25.00390625 6.3359375 C-23.68390625 6.3359375 -22.36390625 6.3359375 -21.00390625 6.3359375 C-21.00390625 5.6759375 -21.00390625 5.0159375 -21.00390625 4.3359375 C-19.37630208 3.88020833 -17.74869792 3.42447917 -16.12109375 2.96875 C-13.89669463 2.33414683 -13.89669463 2.33414683 -11.37182617 1.31738281 C-7.52993705 0.19781817 -3.96521204 0.0123307 0 0 Z M-0.00390625 4.3359375 C0.99609375 6.3359375 0.99609375 6.3359375 0.99609375 6.3359375 Z M-19.00390625 8.3359375 C-19.99390625 9.3259375 -20.98390625 10.3159375 -22.00390625 11.3359375 C-21.01390625 11.6659375 -20.02390625 11.9959375 -19.00390625 12.3359375 C-18.01390625 11.3459375 -17.02390625 10.3559375 -16.00390625 9.3359375 C-16.99390625 9.0059375 -17.98390625 8.6759375 -19.00390625 8.3359375 Z M-12.44140625 13.8359375 C-12.95703125 14.6609375 -13.47265625 15.4859375 -14.00390625 16.3359375 C-9.91206249 16.51024451 -9.91206249 16.51024451 -6.00390625 15.5234375 C-5.01390625 15.430625 -5.01390625 15.430625 -4.00390625 15.3359375 C-3.03453125 16.1609375 -2.06515625 16.9859375 -1.06640625 17.8359375 C1.69330283 20.59615733 1.69330283 20.59615733 4.74609375 20.4609375 C7.23414887 19.49450608 7.23414887 19.49450608 8.30859375 16.7734375 C8.53546875 15.9690625 8.76234375 15.1646875 8.99609375 14.3359375 C5.65135574 13.22102483 3.39545853 13.53082479 -0.00390625 14.3359375 C-0.66390625 14.3359375 -1.32390625 14.3359375 -2.00390625 14.3359375 C-2.33390625 13.3459375 -2.66390625 12.3559375 -3.00390625 11.3359375 C-8.33634668 10.73118311 -8.33634668 10.73118311 -12.44140625 13.8359375 Z M-31.00390625 18.3359375 C-32.65390625 19.6559375 -34.30390625 20.9759375 -36.00390625 22.3359375 C-35.67390625 23.3259375 -35.34390625 24.3159375 -35.00390625 25.3359375 C-33.92109375 25.0265625 -33.92109375 25.0265625 -32.81640625 24.7109375 C-29.48493137 24.26674085 -27.89496222 24.64948818 -25.00390625 26.3359375 C-24.19140625 28.4609375 -24.19140625 28.4609375 -24.00390625 30.3359375 C-23.01390625 30.3359375 -22.02390625 30.3359375 -21.00390625 30.3359375 C-21.00390625 29.6759375 -21.00390625 29.0159375 -21.00390625 28.3359375 C-20.36453125 28.0884375 -19.72515625 27.8409375 -19.06640625 27.5859375 C-16.81649084 26.52031317 -16.81649084 26.52031317 -16.25390625 24.2109375 C-16.17140625 23.5921875 -16.08890625 22.9734375 -16.00390625 22.3359375 C-17.32390625 22.3359375 -18.64390625 22.3359375 -20.00390625 22.3359375 C-23.90182928 21.36145674 -27.49036234 20.30352209 -31.00390625 18.3359375 Z M-7.87890625 27.5859375 C-9.0695855 30.49648677 -9.1648616 31.48631983 -8.00390625 34.3359375 C-5.6709585 34.37835473 -3.33688058 34.37686687 -1.00390625 34.3359375 C-0.67390625 34.0059375 -0.34390625 33.6759375 -0.00390625 33.3359375 C3.65714467 32.81293023 5.00311866 33.34012543 8.24609375 35.2734375 C10.99609375 37.3359375 10.99609375 37.3359375 11.99609375 38.3359375 C14.95413948 38.66934221 14.95413948 38.66934221 17.99609375 38.3359375 C20.22347482 35.64922002 20.22347482 35.64922002 19.87109375 33.2734375 C19.12912655 31.22874309 19.12912655 31.22874309 17.30859375 30.0234375 C14.26606573 29.11890214 12.10966402 29.78648392 8.99609375 30.3359375 C6.65395168 30.0715021 4.31583609 29.75349112 1.99609375 29.3359375 C1.99609375 28.6759375 1.99609375 28.0159375 1.99609375 27.3359375 C-1.94501528 24.70853148 -4.60847913 23.66142496 -7.87890625 27.5859375 Z M-51.00390625 32.3359375 C-51.66390625 33.9859375 -52.32390625 35.6359375 -53.00390625 37.3359375 C-52.01390625 37.6659375 -51.02390625 37.9959375 -50.00390625 38.3359375 C-48.81640625 40.8984375 -48.81640625 40.8984375 -48.00390625 43.3359375 C-46.84871707 42.43108958 -45.70505219 41.5115169 -44.56640625 40.5859375 C-43.92832031 40.07546875 -43.29023438 39.565 -42.6328125 39.0390625 C-40.81580071 37.13926121 -40.39967428 35.90006842 -40.00390625 33.3359375 C-40.99390625 33.0059375 -41.98390625 32.6759375 -43.00390625 32.3359375 C-43.99390625 32.8309375 -43.99390625 32.8309375 -45.00390625 33.3359375 C-47.01191081 33.05481686 -49.01404676 32.72525783 -51.00390625 32.3359375 Z M-34.00390625 37.3359375 C-34.70325765 39.52135302 -34.70325765 39.52135302 -34.75390625 41.9609375 C-34.810625 42.77820312 -34.86734375 43.59546875 -34.92578125 44.4375 C-34.9515625 45.06398438 -34.97734375 45.69046875 -35.00390625 46.3359375 C-33.48796875 46.0884375 -33.48796875 46.0884375 -31.94140625 45.8359375 C-30.64203125 45.6709375 -29.34265625 45.5059375 -28.00390625 45.3359375 C-26.86953125 45.1709375 -25.73515625 45.0059375 -24.56640625 44.8359375 C-20.51349007 45.40476784 -19.78669644 46.20219606 -16.94140625 48.9609375 C-15.01552548 50.90196768 -15.01552548 50.90196768 -13.00390625 52.3359375 C-9.17895069 51.84010993 -7.70551615 51.0375474 -5.00390625 48.3359375 C-4.67057292 45.8359375 -4.67057292 45.8359375 -5.00390625 43.3359375 C-6.96926342 40.92471382 -6.96926342 40.92471382 -10.69921875 41.140625 C-12.17590733 41.1539285 -13.65252983 41.17778915 -15.12890625 41.2109375 C-16.26005859 41.22447266 -16.26005859 41.22447266 -17.4140625 41.23828125 C-19.27747879 41.2618688 -21.14073218 41.29774031 -23.00390625 41.3359375 C-23.33390625 40.6759375 -23.66390625 40.0159375 -24.00390625 39.3359375 C-25.89977009 37.19004327 -25.89977009 37.19004327 -28.00390625 35.3359375 C-30.5863427 35.3359375 -31.86107039 35.89866955 -34.00390625 37.3359375 Z M-152.00390625 39.3359375 C-152.00390625 63.0959375 -152.00390625 86.8559375 -152.00390625 111.3359375 C-133.36074542 113.67996883 -133.36074542 113.67996883 -126.00390625 110.3359375 C-125.34390625 110.3359375 -124.68390625 110.3359375 -124.00390625 110.3359375 C-124.00390625 109.6759375 -124.00390625 109.0159375 -124.00390625 108.3359375 C-123.38515625 108.0471875 -122.76640625 107.7584375 -122.12890625 107.4609375 C-119.8706486 106.39873708 -119.8706486 106.39873708 -118.00390625 104.3359375 C-118.00390625 103.3459375 -118.00390625 102.3559375 -118.00390625 101.3359375 C-117.34390625 101.3359375 -116.68390625 101.3359375 -116.00390625 101.3359375 C-115.82214844 100.40974609 -115.82214844 100.40974609 -115.63671875 99.46484375 C-115.38535156 98.19447266 -115.38535156 98.19447266 -115.12890625 96.8984375 C-114.9484375 95.97933594 -114.76796875 95.06023437 -114.58203125 94.11328125 C-114.23186772 92.43107675 -113.85408693 90.75386921 -113.42578125 89.08984375 C-111.09433813 80.01386877 -111.33497969 71.28469126 -114.00390625 62.3359375 C-114.25140625 61.0365625 -114.25140625 61.0365625 -114.50390625 59.7109375 C-115.11213793 56.82183703 -116.01852534 54.11818947 -117.00390625 51.3359375 C-117.31328125 50.4078125 -117.62265625 49.4796875 -117.94140625 48.5234375 C-118.46734375 47.440625 -118.46734375 47.440625 -119.00390625 46.3359375 C-119.99390625 46.0059375 -120.98390625 45.6759375 -122.00390625 45.3359375 C-122.33390625 44.6759375 -122.66390625 44.0159375 -123.00390625 43.3359375 C-125.31532446 42.46200233 -125.31532446 42.46200233 -128.00390625 41.7734375 C-132.91192973 40.42791402 -132.91192973 40.42791402 -134.00390625 39.3359375 C-139.94390625 39.3359375 -145.88390625 39.3359375 -152.00390625 39.3359375 Z M4.99609375 46.3359375 C3.89337329 49.64409888 3.78071557 52.03705387 4.99609375 55.3359375 C7.48732845 56.81721219 9.01325376 57.56540221 11.88671875 56.89453125 C12.5828125 56.71019531 13.27890625 56.52585937 13.99609375 56.3359375 C18.63202257 55.83004902 21.92503299 55.6522817 25.93359375 58.2109375 C26.95453125 59.2628125 26.95453125 59.2628125 27.99609375 60.3359375 C28.65609375 60.9959375 29.31609375 61.6559375 29.99609375 62.3359375 C32.49933707 62.31927421 32.49933707 62.31927421 34.99609375 61.3359375 C36.81947128 59.3791087 36.81947128 59.3791087 37.99609375 57.3359375 C36.01609375 53.8709375 36.01609375 53.8709375 33.99609375 50.3359375 C29.95512953 50.92761714 29.95512953 50.92761714 26.05859375 52.0859375 C22.5760757 52.5080609 20.06018083 50.86798104 16.99609375 49.3359375 C16.03703125 48.500625 16.03703125 48.500625 15.05859375 47.6484375 C11.79266042 45.57011629 8.8103119 46.14522659 4.99609375 46.3359375 Z M-53.00390625 50.3359375 C-55.97459479 53.30662604 -56.00390625 56.23627563 -56.00390625 60.3359375 C-55.11638672 60.14064453 -55.11638672 60.14064453 -54.2109375 59.94140625 C-51.73563868 59.50933941 -49.51723044 59.22150284 -47.00390625 59.3359375 C-44.25390625 61.7109375 -44.25390625 61.7109375 -42.00390625 64.3359375 C-39.47040823 65.39439559 -39.47040823 65.39439559 -37.00390625 65.3359375 C-36.01390625 64.6759375 -35.02390625 64.0159375 -34.00390625 63.3359375 C-33.63974578 60.89900439 -33.63974578 60.89900439 -33.81640625 58.2109375 C-33.84347656 57.30085938 -33.87054688 56.39078125 -33.8984375 55.453125 C-33.93324219 54.75445312 -33.96804687 54.05578125 -34.00390625 53.3359375 C-37.71989816 53.13507307 -38.7759907 53.1839938 -42.00390625 55.3359375 C-45.69140625 54.9609375 -45.69140625 54.9609375 -49.00390625 54.3359375 C-49.00390625 53.6759375 -49.00390625 53.0159375 -49.00390625 52.3359375 C-49.66390625 52.3359375 -50.32390625 52.3359375 -51.00390625 52.3359375 C-51.00390625 51.6759375 -51.00390625 51.0159375 -51.00390625 50.3359375 C-51.66390625 50.3359375 -52.32390625 50.3359375 -53.00390625 50.3359375 Z M-22.81640625 59.8984375 C-24.47666274 63.3063324 -23.77176197 65.70607409 -23.00390625 69.3359375 C-22.01390625 69.6659375 -21.02390625 69.9959375 -20.00390625 70.3359375 C-19.67390625 70.9959375 -19.34390625 71.6559375 -19.00390625 72.3359375 C-18.11703125 71.8409375 -17.23015625 71.3459375 -16.31640625 70.8359375 C-12.97629029 69.32343216 -11.56189676 68.72847571 -8.00390625 69.3359375 C-4.76934585 70.79902025 -1.86424774 72.40676869 0.55859375 75.0234375 C2.75680701 77.03050178 5.11579437 77.01590424 7.99609375 77.3359375 C7.99609375 76.6759375 7.99609375 76.0159375 7.99609375 75.3359375 C9.31609375 74.6759375 10.63609375 74.0159375 11.99609375 73.3359375 C11.99609375 71.3559375 11.99609375 69.3759375 11.99609375 67.3359375 C11.33609375 67.3359375 10.67609375 67.3359375 9.99609375 67.3359375 C9.99609375 66.6759375 9.99609375 66.0159375 9.99609375 65.3359375 C5.77677771 64.6697297 2.71025286 64.19565625 -1.50390625 65.0234375 C-7.05298205 65.5188907 -10.95969733 62.92587777 -15.25390625 59.5859375 C-18.06211095 57.580077 -20.22480013 57.66429429 -22.81640625 59.8984375 Z M-67.00390625 66.3359375 C-67.33390625 66.9959375 -67.66390625 67.6559375 -68.00390625 68.3359375 C-67.34390625 68.3359375 -66.68390625 68.3359375 -66.00390625 68.3359375 C-66.00390625 71.6359375 -66.00390625 74.9359375 -66.00390625 78.3359375 C-64.68390625 77.3459375 -63.36390625 76.3559375 -62.00390625 75.3359375 C-61.73578125 75.9340625 -61.46765625 76.5321875 -61.19140625 77.1484375 C-60.01897158 79.30818558 -58.81021343 80.69384006 -57.00390625 82.3359375 C-54.70756801 78.89143013 -54.4637414 76.39781467 -54.00390625 72.3359375 C-55.62085429 70.57942219 -55.62085429 70.57942219 -58.00390625 69.3359375 C-61.22565169 70.04817597 -61.22565169 70.04817597 -64.00390625 71.3359375 C-64.33390625 69.6859375 -64.66390625 68.0359375 -65.00390625 66.3359375 C-65.66390625 66.3359375 -66.32390625 66.3359375 -67.00390625 66.3359375 Z M22.99609375 70.3359375 C21.1383261 73.47092042 20.79468899 75.71065182 20.99609375 79.3359375 C21.65609375 79.3359375 22.31609375 79.3359375 22.99609375 79.3359375 C22.99609375 79.9959375 22.99609375 80.6559375 22.99609375 81.3359375 C26.00937987 82.54125195 27.22117937 82.27045805 30.43359375 81.3359375 C35.27474282 79.97701846 37.52623349 80.70599739 42.05859375 82.6484375 C44.8909125 84.27551423 46.82686412 85.91641215 48.99609375 88.3359375 C51.63776603 86.80802546 51.63776603 86.80802546 53.99609375 84.3359375 C54.39650267 80.53205277 54.20385581 77.95922369 52.99609375 74.3359375 C47.83529058 74.85814552 47.83529058 74.85814552 42.80859375 76.0234375 C40.03940386 76.50088403 38.46799897 75.6020353 35.99609375 74.3359375 C35.23296875 73.6346875 34.46984375 72.9334375 33.68359375 72.2109375 C29.91703552 69.58310618 27.51651316 70.02946839 22.99609375 70.3359375 Z M-46.00390625 74.3359375 C-47.04396327 77.71612281 -47.08395107 80.8139654 -47.00390625 84.3359375 C-46.34390625 84.3359375 -45.68390625 84.3359375 -45.00390625 84.3359375 C-45.00390625 84.9959375 -45.00390625 85.6559375 -45.00390625 86.3359375 C-40.74846928 85.67099912 -40.74846928 85.67099912 -36.62890625 84.4609375 C-32.33911026 84.2566615 -29.32917332 86.80372576 -26.00390625 89.3359375 C-25.20339844 90.16544922 -25.20339844 90.16544922 -24.38671875 91.01171875 C-23.93039063 91.44871094 -23.4740625 91.88570312 -23.00390625 92.3359375 C-20.21105299 92.24866084 -19.22715779 91.55918904 -17.25390625 89.5859375 C-15.79310634 86.95649767 -15.75702659 85.2984934 -16.00390625 82.3359375 C-16.66390625 82.3359375 -17.32390625 82.3359375 -18.00390625 82.3359375 C-18.33390625 81.3459375 -18.66390625 80.3559375 -19.00390625 79.3359375 C-22.29927082 79.25556275 -25.30206932 79.38301588 -28.56640625 79.8984375 C-31.77608983 80.30694268 -33.91578514 80.17815235 -37.00390625 79.3359375 C-37.00390625 78.6759375 -37.00390625 78.0159375 -37.00390625 77.3359375 C-39.30667199 75.11845938 -40.52870717 74.36833744 -43.75390625 74.1484375 C-44.49640625 74.2103125 -45.23890625 74.2721875 -46.00390625 74.3359375 Z M-5.94140625 86.0234375 C-7.22972507 88.82742553 -7.61262696 90.29233394 -7.00390625 93.3359375 C-5.29294646 96.02537858 -5.29294646 96.02537858 -2.00390625 97.3359375 C0.81484906 96.99716567 3.50311692 96.3681896 6.26953125 95.734375 C10.46182399 95.12174769 12.40961712 96.16910787 15.99609375 98.3359375 C17.01550565 99.31614125 18.01855731 100.31396758 18.99609375 101.3359375 C21.59524913 102.52621734 21.59524913 102.52621734 23.99609375 103.3359375 C26.65778417 101.8763601 26.65778417 101.8763601 28.99609375 99.3359375 C29.45051699 96.53455185 29.23459302 94.19792875 28.99609375 91.3359375 C27.01609375 90.6759375 25.03609375 90.0159375 22.99609375 89.3359375 C22.99609375 89.9959375 22.99609375 90.6559375 22.99609375 91.3359375 C22.07376953 91.31853516 22.07376953 91.31853516 21.1328125 91.30078125 C19.92044922 91.28724609 19.92044922 91.28724609 18.68359375 91.2734375 C17.88308594 91.26183594 17.08257812 91.25023438 16.2578125 91.23828125 C13.82748041 91.23935895 13.82748041 91.23935895 10.99609375 92.3359375 C10.99609375 91.6759375 10.99609375 91.0159375 10.99609375 90.3359375 C9.57296875 89.68625 9.57296875 89.68625 8.12109375 89.0234375 C4.99609375 87.3359375 4.99609375 87.3359375 2.99609375 84.3359375 C-1.87822095 83.66365799 -1.87822095 83.66365799 -5.94140625 86.0234375 Z M-59.00390625 90.3359375 C-60.33331029 94.32414961 -59.44194238 96.45323995 -58.00390625 100.3359375 C-55.04007443 101.61504668 -55.04007443 101.61504668 -52.06640625 100.6484375 C-51.05578125 100.5453125 -50.04515625 100.4421875 -49.00390625 100.3359375 C-47.6495795 101.64794154 -46.31657143 102.98225154 -45.00390625 104.3359375 C-41.83607425 104.67042009 -41.83607425 104.67042009 -39.00390625 104.3359375 C-38.92962787 100.99341026 -38.93843672 98.5323461 -40.00390625 95.3359375 C-44.97453746 94.42296442 -49.03327504 94.42296442 -54.00390625 95.3359375 C-54.33390625 94.3459375 -54.66390625 93.3559375 -55.00390625 92.3359375 C-57.00407091 91.12711654 -57.00407091 91.12711654 -59.00390625 90.3359375 Z M-29.00390625 98.3359375 C-31.26478085 101.0191612 -31.26478085 101.0191612 -30.75390625 103.3359375 C-29.99038068 105.60239128 -29.99038068 105.60239128 -28.00390625 108.3359375 C-27.34390625 108.3359375 -26.68390625 108.3359375 -26.00390625 108.3359375 C-26.00390625 108.9959375 -26.00390625 109.6559375 -26.00390625 110.3359375 C-25.48828125 110.1915625 -24.97265625 110.0471875 -24.44140625 109.8984375 C-15.83339934 107.91197437 -15.83339934 107.91197437 -12.19140625 109.7734375 C-11.46953125 110.2890625 -10.74765625 110.8046875 -10.00390625 111.3359375 C-9.34390625 111.3359375 -8.68390625 111.3359375 -8.00390625 111.3359375 C-8.00390625 111.9959375 -8.00390625 112.6559375 -8.00390625 113.3359375 C-3.36888788 114.49603149 -3.36888788 114.49603149 0.99609375 113.2109375 C2.37954109 110.61697374 1.81323839 109.08451493 0.99609375 106.3359375 C0.00609375 106.0059375 -0.98390625 105.6759375 -2.00390625 105.3359375 C-2.33390625 104.6759375 -2.66390625 104.0159375 -3.00390625 103.3359375 C-3.84953125 103.6865625 -4.69515625 104.0371875 -5.56640625 104.3984375 C-9.59576544 105.49735364 -11.9619415 105.34642869 -16.00390625 104.3359375 C-21.61429586 101.11515828 -21.61429586 101.11515828 -23.00390625 98.3359375 C-25.92024754 98.0857218 -25.92024754 98.0857218 -29.00390625 98.3359375 Z M-45.00390625 112.3359375 C-44.37437018 115.27377248 -43.77800144 117.88599653 -42.00390625 120.3359375 C-39.23946824 121.11744541 -39.23946824 121.11744541 -36.00390625 121.3359375 C-29.42108416 122.0169191 -29.42108416 122.0169191 -26.87890625 123.9609375 C-25.01696953 125.65247861 -25.01696953 125.65247861 -22.25390625 125.0234375 C-21.51140625 124.7965625 -20.76890625 124.5696875 -20.00390625 124.3359375 C-19.77227915 121.26187557 -19.77227915 121.26187557 -21.44140625 118.5859375 C-23.69784536 116.11309664 -23.69784536 116.11309664 -26.09765625 116.30859375 C-27.67510583 116.53732394 -29.24954204 116.78777126 -30.8203125 117.05859375 C-33.74790153 117.43043422 -35.48076918 116.82013577 -38.00390625 115.3359375 C-38.51953125 114.7996875 -39.03515625 114.2634375 -39.56640625 113.7109375 C-41.15412935 111.8751224 -41.15412935 111.8751224 -45.00390625 112.3359375 Z M-40.00390625 129.3359375 C-37.68445837 132.81510932 -35.74020661 133.63023516 -32.00390625 135.3359375 C-32.33390625 133.6859375 -32.66390625 132.0359375 -33.00390625 130.3359375 C-35.31390625 130.0059375 -37.62390625 129.6759375 -40.00390625 129.3359375 Z " fill="#FEFEFE" transform="translate(204.00390625,-0.3359375)"/>
<path d="M0 0 C43.56 0 87.12 0 132 0 C132 12.21 132 24.42 132 37 C131 38 131 38 127.03100586 38.11352539 C125.25894393 38.1133662 123.4868774 38.10766785 121.71484375 38.09765625 C120.78402481 38.0962413 119.85320587 38.09482635 118.8941803 38.09336853 C115.90858809 38.08775172 112.92306971 38.0751964 109.9375 38.0625 C107.91862087 38.05748716 105.89974057 38.05292388 103.88085938 38.04882812 C98.92054428 38.03777683 93.96028468 38.02050095 89 38 C89.00222061 39.26089447 89.00444122 40.52178894 89.00672913 41.82089233 C89.02696723 53.68148158 89.04197538 65.54206734 89.05181217 77.40266991 C89.05703929 83.50087578 89.06413386 89.59906775 89.07543945 95.69726562 C89.08627438 101.57813275 89.09227813 107.45898649 89.09487724 113.33986282 C89.09673039 115.58782792 89.10034892 117.83579226 89.10573006 120.08375168 C89.11294849 123.22300575 89.1139906 126.36220386 89.11352539 129.50146484 C89.11712067 130.43869888 89.12071594 131.37593292 89.12442017 132.34156799 C89.1230455 133.19414688 89.12167084 134.04672577 89.12025452 134.92514038 C89.12117631 135.66810553 89.1220981 136.41107067 89.12304783 137.17654991 C89 139 89 139 88 141 C73.15 141 58.3 141 43 141 C43 107.01 43 73.02 43 38 C29.14 38 15.28 38 1 38 C0.67 37.67 0.34 37.34 0 37 C0 24.79 0 12.58 0 0 Z " fill="#FEFEFE" transform="translate(285,5)"/>
<path d="M0 0 C0 0.66 0 1.32 0 2 C0.66 2 1.32 2 2 2 C7.4984326 7.91081504 9.46732164 12.42910902 9.23828125 20.578125 C8.59902239 27.07551018 4.80707414 30.41501781 0.1328125 34.484375 C-5.54174601 38.51684515 -11.24763137 38.67827391 -18 38 C-21.1875 36.625 -21.1875 36.625 -23 35 C-23 34.34 -23 33.68 -23 33 C-24.32 32.67 -25.64 32.34 -27 32 C-27 31.01 -27 30.02 -27 29 C-27.66 29 -28.32 29 -29 29 C-31.32086397 23.675665 -30.91457003 19.56157448 -30 14 C-30.66 13.67 -31.32 13.34 -32 13 C-31.01 11.02 -30.02 9.04 -29 7 C-28.34 7 -27.68 7 -27 7 C-27 6.01 -27 5.02 -27 4 C-25.13671875 2.4296875 -25.13671875 2.4296875 -22.6875 0.875 C-21.88699219 0.35679688 -21.08648437 -0.16140625 -20.26171875 -0.6953125 C-13.19441304 -4.77213479 -7.13090552 -2.66220473 0 0 Z " fill="#FEFEFE" transform="translate(408,109)"/>
<path d="M0 0 C0.495 1.485 0.495 1.485 1 3 C1.99 3.33 2.98 3.66 4 4 C5.1875 6.5625 5.1875 6.5625 6 9 C4.3125 10.625 4.3125 10.625 2 12 C-0.75 11.1875 -0.75 11.1875 -3 10 C-2.67 9.01 -2.34 8.02 -2 7 C-5.01226789 6.40784477 -7.9244943 5.9415707 -11 6 C-13.46172153 7.792191 -13.46172153 7.792191 -15 10 C-15.66 10 -16.32 10 -17 10 C-16.505 10.99 -16.505 10.99 -16 12 C-15.76666667 18.53333333 -15.76666667 18.53333333 -17 21 C-16.195625 21.309375 -15.39125 21.61875 -14.5625 21.9375 C-12 23 -12 23 -11 24 C-7.93518979 24.1613058 -5.94450722 23.98150241 -3 23 C-3 22.34 -3 21.68 -3 21 C-3.804375 21.020625 -4.60875 21.04125 -5.4375 21.0625 C-8 21 -8 21 -9 20 C-9.04092937 17.66702567 -9.04241723 15.33294775 -9 13 C-6.87527424 12.94613371 -4.75016348 12.90726929 -2.625 12.875 C-1.44164062 12.85179687 -0.25828125 12.82859375 0.9609375 12.8046875 C4 13 4 13 6 15 C6.30078125 17.2421875 6.30078125 17.2421875 6.3125 19.875 C6.32925781 20.73867187 6.34601563 21.60234375 6.36328125 22.4921875 C5.9288253 25.49133499 5.08252889 26.82480589 3 29 C-0.6814807 30.22716023 -4.10410762 30.18406814 -7.9375 30.1875 C-8.65357422 30.19974609 -9.36964844 30.21199219 -10.10742188 30.22460938 C-13.87530588 30.23508542 -16.87341575 30.23436387 -20 28 C-21.53487153 25.72611625 -22.77533442 23.44933117 -24 21 C-24.144375 22.299375 -24.28875 23.59875 -24.4375 24.9375 C-24.875 28.875 -24.875 28.875 -26 30 C-32.3 30.46666667 -32.3 30.46666667 -34.875 28.75 C-36.10506663 26.83656302 -36.61502006 25.23288365 -37 23 C-37.66 23 -38.32 23 -39 23 C-39.474375 22.030625 -39.94875 21.06125 -40.4375 20.0625 C-41.70193947 17.19522563 -41.70193947 17.19522563 -43 16 C-43.33 20.62 -43.66 25.24 -44 30 C-46.31 30 -48.62 30 -51 30 C-53.75551511 27.24448489 -52.18568203 18.78025429 -52.1875 15.0625 C-52.19974609 13.74830078 -52.21199219 12.43410156 -52.22460938 11.08007812 C-52.22750977 9.2015918 -52.22750977 9.2015918 -52.23046875 7.28515625 C-52.23457764 6.12894775 -52.23868652 4.97273926 -52.24291992 3.78149414 C-52 1 -52 1 -50 -1 C-46.85399271 -0.83442067 -45.31661451 -0.26074136 -42.875 1.75 C-40.95125401 4.05849519 -39.49611738 6.39805674 -38 9 C-37.0109205 10.34145426 -36.01252095 11.67614989 -35 13 C-34.96261719 12.15695313 -34.92523438 11.31390625 -34.88671875 10.4453125 C-34.82097656 9.34960938 -34.75523437 8.25390625 -34.6875 7.125 C-34.62949219 6.03445312 -34.57148438 4.94390625 -34.51171875 3.8203125 C-34.34285156 2.88960937 -34.17398437 1.95890625 -34 1 C-31 -1 -31 -1 -28.9375 -0.6875 C-27 0 -27 0 -25 1 C-24.40644386 3.64860427 -24.25790731 6.29197322 -24 9 C-23.401875 8.071875 -22.80375 7.14375 -22.1875 6.1875 C-19.50306228 2.27589075 -18.30999106 0.56142474 -13.9375 -1.3125 C-8.88982754 -2.19383964 -4.90102276 -1.28195766 0 0 Z M-25 12 C-24 14 -24 14 -24 14 Z " fill="#FBFBFB" transform="translate(414,168)"/>
<path d="M0 0 C4.29559412 2.57735647 6.03378141 5.44665169 8 10 C8.103125 8.906875 8.20625 7.81375 8.3125 6.6875 C9.16597996 2.10974386 9.16597996 2.10974386 12 0 C14.06884766 -0.35644531 14.06884766 -0.35644531 16.4140625 -0.328125 C17.67863281 -0.32039062 17.67863281 -0.32039062 18.96875 -0.3125 C20.28359375 -0.2815625 20.28359375 -0.2815625 21.625 -0.25 C22.50929687 -0.24484375 23.39359375 -0.2396875 24.3046875 -0.234375 C30.84588509 -0.15411491 30.84588509 -0.15411491 32 1 C32 2.98 32 4.96 32 7 C27.05 7 22.1 7 17 7 C17 8.98 17 10.96 17 13 C21.29 13 25.58 13 30 13 C30.495 14.98 30.495 14.98 31 17 C30.34 17.99 29.68 18.98 29 20 C26.1796875 20.29296875 26.1796875 20.29296875 22.875 20.1875 C21.77929688 20.16042969 20.68359375 20.13335937 19.5546875 20.10546875 C18.71164063 20.07066406 17.86859375 20.03585938 17 20 C17 23.63 17 27.26 17 31 C14.66705225 31.04241723 12.33297433 31.04092937 10 31 C9 30 9 30 8.90234375 28.15234375 C8.93489583 26.1015625 8.96744792 24.05078125 9 22 C8.34 22 7.68 22 7 22 C7 23.32 7 24.64 7 26 C4.92201339 28.77064882 4.10344765 29.68116559 1 31 C-11.44594595 32.45945946 -11.44594595 32.45945946 -16.4609375 29.59375 C-18 28 -18 28 -18 26 C-18.66 25.67 -19.32 25.34 -20 25 C-22.48427604 20.3074786 -22.55608174 15.71089849 -21.5 10.5625 C-21.335 10.046875 -21.17 9.53125 -21 9 C-20.34 9 -19.68 9 -19 9 C-18.67 7.35 -18.34 5.7 -18 4 C-17.34 4 -16.68 4 -16 4 C-16 3.34 -16 2.68 -16 2 C-10.01966129 -0.66979407 -6.41593172 -1.57768813 0 0 Z M-12.4375 9 C-14.54833483 13.05280288 -14.36646277 15.45586168 -14 20 C-13.67 20.99 -13.34 21.98 -13 23 C-10.98491642 23.73323796 -10.98491642 23.73323796 -9 24 C-9 24.66 -9 25.32 -9 26 C-5.86944216 26.35777804 -4.08759148 26.03892955 -1.1875 24.75 C1.9082471 20.85820365 1.56041168 17.62695256 1.56640625 12.77734375 C1.24579719 9.91397336 1.24579719 9.91397336 -0.81640625 8.16015625 C-5.09443507 5.88721428 -8.68584825 5.92172164 -12.4375 9 Z " fill="#F7F7F7" transform="translate(187,167)"/>
<path d="M0 0 C0.97582031 -0.00128906 1.95164063 -0.00257813 2.95703125 -0.00390625 C4.49810547 0.00189453 4.49810547 0.00189453 6.0703125 0.0078125 C7.08996094 0.00394531 8.10960937 0.00007812 9.16015625 -0.00390625 C10.62775391 -0.00197266 10.62775391 -0.00197266 12.125 0 C13.47440674 0.00169189 13.47440674 0.00169189 14.85107422 0.00341797 C17.1953125 0.1328125 17.1953125 0.1328125 20.1953125 1.1328125 C21.0409375 0.9471875 21.8865625 0.7615625 22.7578125 0.5703125 C23.964375 0.35375 23.964375 0.35375 25.1953125 0.1328125 C27.78457581 2.72207581 27.56929293 4.15986529 27.8203125 7.7578125 C27.89507812 8.76070312 27.96984375 9.76359375 28.046875 10.796875 C28.09585938 11.56773437 28.14484375 12.33859375 28.1953125 13.1328125 C32.6503125 12.6378125 32.6503125 12.6378125 37.1953125 12.1328125 C37.24429688 11.43414062 37.29328125 10.73546875 37.34375 10.015625 C37.41851562 9.10554687 37.49328125 8.19546875 37.5703125 7.2578125 C37.63992188 6.35289062 37.70953125 5.44796875 37.78125 4.515625 C38.1953125 2.1328125 38.1953125 2.1328125 40.1953125 0.1328125 C44.75086806 0.68836806 44.75086806 0.68836806 46.1953125 2.1328125 C46.29524782 4.1933656 46.32612156 6.2573384 46.328125 8.3203125 C46.33005859 10.20363281 46.33005859 10.20363281 46.33203125 12.125 C46.32993652 12.78209961 46.3278418 13.43919922 46.32568359 14.11621094 C46.32033484 16.12442585 46.32562941 18.13241709 46.33203125 20.140625 C46.33074219 21.39617187 46.32945312 22.65171875 46.328125 23.9453125 C46.32699707 25.10675781 46.32586914 26.26820313 46.32470703 27.46484375 C46.1953125 30.1328125 46.1953125 30.1328125 45.1953125 31.1328125 C42.86233817 31.17374187 40.52826025 31.17522973 38.1953125 31.1328125 C38.1953125 27.1728125 38.1953125 23.2128125 38.1953125 19.1328125 C34.5653125 19.1328125 30.9353125 19.1328125 27.1953125 19.1328125 C27.2159375 20.9271875 27.2365625 22.7215625 27.2578125 24.5703125 C27.2791247 26.42447372 27.26757752 28.27993748 27.1953125 30.1328125 C26.7003125 30.6278125 26.7003125 30.6278125 26.1953125 31.1328125 C24.2153125 31.1328125 22.2353125 31.1328125 20.1953125 31.1328125 C19.7003125 18.7578125 19.7003125 18.7578125 19.1953125 6.1328125 C18.8653125 6.4628125 18.5353125 6.7928125 18.1953125 7.1328125 C15.52472399 7.27396411 12.87099012 7.17528357 10.1953125 7.1328125 C10.20316772 8.1700647 10.20316772 8.1700647 10.21118164 9.22827148 C10.2318875 12.34227602 10.24495213 15.45626611 10.2578125 18.5703125 C10.26619141 19.65892578 10.27457031 20.74753906 10.28320312 21.86914062 C10.28803711 23.42084961 10.28803711 23.42084961 10.29296875 25.00390625 C10.30082397 26.44141235 10.30082397 26.44141235 10.30883789 27.90795898 C10.1953125 30.1328125 10.1953125 30.1328125 9.1953125 31.1328125 C6.8853125 31.1328125 4.5753125 31.1328125 2.1953125 31.1328125 C2.1953125 23.2128125 2.1953125 15.2928125 2.1953125 7.1328125 C-0.1146875 7.1328125 -2.4246875 7.1328125 -4.8046875 7.1328125 C-5.4646875 6.4728125 -6.1246875 5.8128125 -6.8046875 5.1328125 C-6.04911501 0.14603406 -4.80127587 0.006035 0 0 Z " fill="#FEFEFE" transform="translate(236.8046875,166.8671875)"/>
<path d="M0 0 C2.8125 0.1875 2.8125 0.1875 6 1 C8.74469461 4.29363353 9.36303085 6.76464012 9 11 C9.66 11 10.32 11 11 11 C11.28875 11.886875 11.5775 12.77375 11.875 13.6875 C13.07425316 17.21863431 14.3314252 20.6628504 16 24 C16.01981934 23.34402832 16.03963867 22.68805664 16.06005859 22.01220703 C16.15512507 19.04938931 16.26487752 16.08729468 16.375 13.125 C16.4059375 12.09246094 16.436875 11.05992187 16.46875 9.99609375 C16.50742188 9.00996094 16.54609375 8.02382812 16.5859375 7.0078125 C16.6173584 6.09660645 16.6487793 5.18540039 16.68115234 4.24658203 C17 2 17 2 19 0 C23.55555556 0.55555556 23.55555556 0.55555556 25 2 C25.08700342 3.63472882 25.10701063 5.27314055 25.09765625 6.91015625 C25.09443359 7.89951172 25.09121094 8.88886719 25.08789062 9.90820312 C25.07532227 11.46958008 25.07532227 11.46958008 25.0625 13.0625 C25.05798828 14.10728516 25.05347656 15.15207031 25.04882812 16.22851562 C25.03699913 18.8190666 25.02051689 21.40950559 25 24 C26.13888672 23.94779297 26.13888672 23.94779297 27.30078125 23.89453125 C28.79158203 23.85392578 28.79158203 23.85392578 30.3125 23.8125 C31.29863281 23.77769531 32.28476563 23.74289063 33.30078125 23.70703125 C36 24 36 24 37.91796875 25.26171875 C39 27 39 27 38.6875 29.1875 C38.460625 29.785625 38.23375 30.38375 38 31 C34.04907941 31.07409401 30.09842706 31.12857406 26.14697266 31.16479492 C24.14080626 31.18732251 22.13483474 31.2254357 20.12890625 31.26367188 C18.87207031 31.27333984 17.61523438 31.28300781 16.3203125 31.29296875 C14.57645264 31.31653442 14.57645264 31.31653442 12.79736328 31.34057617 C11.8742334 31.22818604 10.95110352 31.1157959 10 31 C8 28 8 28 8 24 C3.05 24.495 3.05 24.495 -2 25 C-3.390117 27.90876913 -3.390117 27.90876913 -4 31 C-6.31 31 -8.62 31 -11 31 C-11.6875 29.375 -11.6875 29.375 -12 27 C-11.05698138 24.97250996 -10.04451438 22.97711651 -9 21 C-7.91474431 18.02649673 -6.9463589 15.02029436 -6 12 C-5.34 12 -4.68 12 -4 12 C-4.04125 11.0925 -4.0825 10.185 -4.125 9.25 C-4.00468444 6.1217954 -3.6085292 4.61385994 -2 2 C-1.34 2 -0.68 2 0 2 C0 1.34 0 0.68 0 0 Z M1 12 C1 13.32 1 14.64 1 16 C2.32 15.67 3.64 15.34 5 15 C4.34 14.01 3.68 13.02 3 12 C2.34 12 1.68 12 1 12 Z " fill="#FCFCFC" transform="translate(116,167)"/>
<path d="M0 0 C4.55555556 0.55555556 4.55555556 0.55555556 6 2 C6.14115161 4.67058851 6.04247107 7.32432238 6 10 C6.53109375 9.52949219 7.0621875 9.05898437 7.609375 8.57421875 C8.31578125 7.95160156 9.0221875 7.32898438 9.75 6.6875 C10.44609375 6.07261719 11.1421875 5.45773438 11.859375 4.82421875 C16.02558999 1.27381291 16.02558999 1.27381291 18 0 C21.25 0.3125 21.25 0.3125 24 1 C22.32598022 4.95677402 19.86850715 7.84464213 17 11 C16.34 11 15.68 11 15 11 C15.40580989 15.46390881 17.26207536 18.02605096 19.94140625 21.44921875 C21 23 21 23 21 25 C21.66 25 22.32 25 23 25 C23.33 25.99 23.66 26.98 24 28 C24.01981934 27.22285645 24.03963867 26.44571289 24.06005859 25.64501953 C24.15507009 22.13799309 24.26484559 18.63158206 24.375 15.125 C24.4059375 13.90167969 24.436875 12.67835938 24.46875 11.41796875 C24.50742187 10.25136719 24.54609375 9.08476562 24.5859375 7.8828125 C24.6173584 6.80402832 24.6487793 5.72524414 24.68115234 4.61376953 C25 2 25 2 27 0 C32.56818182 0.56818182 32.56818182 0.56818182 34 2 C34.09993532 4.0605531 34.13080906 6.1245259 34.1328125 8.1875 C34.13474609 10.07082031 34.13474609 10.07082031 34.13671875 11.9921875 C34.13462402 12.64928711 34.1325293 13.30638672 34.13037109 13.98339844 C34.12502234 15.99161335 34.13031691 17.99960459 34.13671875 20.0078125 C34.13542969 21.26335937 34.13414062 22.51890625 34.1328125 23.8125 C34.13168457 24.97394531 34.13055664 26.13539063 34.12939453 27.33203125 C34 30 34 30 33 31 C30.30345146 31.07319621 27.63308542 31.09242537 24.9375 31.0625 C24.17888672 31.05798828 23.42027344 31.05347656 22.63867188 31.04882812 C20.75908129 31.0370068 18.87953101 31.01907078 17 31 C17 30.34 17 29.68 17 29 C16.34 29 15.68 29 15 29 C14.34 27.35 13.68 25.7 13 24 C12.34 24 11.68 24 11 24 C9.375 22 9.375 22 8 20 C6.42734206 21.57265794 6.69242023 23.32840029 6.5 25.5 C6.11111111 29.88888889 6.11111111 29.88888889 5 31 C2 31.125 2 31.125 -1 31 C-3.75551511 28.24448489 -2.18568203 19.78025429 -2.1875 16.0625 C-2.19974609 14.74830078 -2.21199219 13.43410156 -2.22460938 12.08007812 C-2.22750977 10.2015918 -2.22750977 10.2015918 -2.23046875 8.28515625 C-2.23457764 7.12894775 -2.23868652 5.97273926 -2.24291992 4.78149414 C-2 2 -2 2 0 0 Z " fill="#FEFEFE" transform="translate(326,167)"/>
<path d="M0 0 C2.8828125 0.03515625 2.8828125 0.03515625 6 1 C8.1171875 3.43359375 8.1171875 3.43359375 9.875 6.4375 C10.47054688 7.42621094 11.06609375 8.41492188 11.6796875 9.43359375 C13 12 13 12 13 14 C13.66 14 14.32 14 15 14 C15.99 15.485 15.99 15.485 17 17 C17.33 11.72 17.66 6.44 18 1 C19.32 0.67 20.64 0.34 22 0 C22.99 0.66 23.98 1.32 25 2 C25.34057617 4.79736328 25.34057617 4.79736328 25.29296875 8.3203125 C25.28330078 9.57714844 25.27363281 10.83398438 25.26367188 12.12890625 C25.23853516 13.44761719 25.21339844 14.76632813 25.1875 16.125 C25.17245483 17.46482903 25.15876613 18.80467404 25.14648438 20.14453125 C25.11102872 23.43008842 25.06160849 26.71484582 25 30 C22.20129973 31.39935013 20.09501208 31.25265405 17 31 C14.05028677 28.65758067 12.28615869 25.47780167 10.3125 22.3125 C9.68988281 21.31863281 9.06726563 20.32476562 8.42578125 19.30078125 C7.95527344 18.54152344 7.48476563 17.78226563 7 17 C6.93941406 17.92683594 6.87882812 18.85367188 6.81640625 19.80859375 C6.73261719 21.00613281 6.64882813 22.20367187 6.5625 23.4375 C6.48128906 24.63246094 6.40007812 25.82742187 6.31640625 27.05859375 C6 30 6 30 5 31 C2 31.125 2 31.125 -1 31 C-3.75551511 28.24448489 -2.18568203 19.78025429 -2.1875 16.0625 C-2.19974609 14.74830078 -2.21199219 13.43410156 -2.22460938 12.08007812 C-2.22750977 10.2015918 -2.22750977 10.2015918 -2.23046875 8.28515625 C-2.23457764 7.12894775 -2.23868652 5.97273926 -2.24291992 4.78149414 C-2 2 -2 2 0 0 Z " fill="#F8F8F8" transform="translate(298,167)"/>
<path d="M0 0 C2.17975183 2.31185801 3.13967738 4.16735325 4.0625 7.1875 C1.41511084 8.6481285 0.16801666 9.1875 -2.9375 9.1875 C-2.9375 8.5275 -2.9375 7.8675 -2.9375 7.1875 C-3.55625 6.878125 -4.175 6.56875 -4.8125 6.25 C-6.1875 5.5625 -7.5625 4.875 -8.9375 4.1875 C-13.13297747 4.87403268 -15.29595125 5.39042428 -18 8.75 C-19.25622375 13.35615373 -18.32221587 16.70460691 -16.9375 21.1875 C-15.6175 21.1875 -14.2975 21.1875 -12.9375 21.1875 C-12.9375 21.8475 -12.9375 22.5075 -12.9375 23.1875 C-9.9675 22.5275 -6.9975 21.8675 -3.9375 21.1875 C-3.9375 20.5275 -3.9375 19.8675 -3.9375 19.1875 C-5.360625 19.2803125 -5.360625 19.2803125 -6.8125 19.375 C-7.84375 19.313125 -8.875 19.25125 -9.9375 19.1875 C-11.9375 16.1875 -11.9375 16.1875 -11.625 14.0625 C-10.9375 12.1875 -10.9375 12.1875 -9.9375 11.1875 C-7.96130553 11.06235072 -5.98011827 11.0117724 -4 11 C-2.91847656 10.98582031 -1.83695313 10.97164062 -0.72265625 10.95703125 C2.0625 11.1875 2.0625 11.1875 4.0625 13.1875 C4.43359375 15.39453125 4.43359375 15.39453125 4.5 18 C4.53996094 18.85207031 4.57992187 19.70414063 4.62109375 20.58203125 C3.78814328 24.46719182 2.23682189 25.84700519 -0.9375 28.1875 C-3.79853036 28.89068688 -6.50373153 28.88850436 -9.4375 28.8125 C-10.18386719 28.83183594 -10.93023437 28.85117188 -11.69921875 28.87109375 C-15.81608791 28.83466128 -17.47692563 28.55823706 -20.78125 25.8984375 C-21.84859375 24.55652344 -21.84859375 24.55652344 -22.9375 23.1875 C-23.52402344 22.54296875 -24.11054687 21.8984375 -24.71484375 21.234375 C-27.26906852 16.95829264 -26.67654826 11.95772061 -25.9375 7.1875 C-23.87878604 2.44416271 -20.82211403 -0.76308449 -16.125 -2.9375 C-10.26098107 -4.67873167 -5.07638631 -3.13223836 0 0 Z " fill="#FBFBFB" transform="translate(65.9375,169.8125)"/>
<path d="M0 0 C5.52996126 1.40903027 8.70616486 3.93944774 11.6875 8.6875 C13.56692162 13.43080219 13.90735546 17.39891434 12.23828125 22.18359375 C10.43097302 26.07680713 8.90695375 28.96293537 5 31 C1.76260477 31.38677516 -1.43212601 31.32733628 -4.6875 31.25 C-6.00717773 31.24226563 -6.00717773 31.24226563 -7.35351562 31.234375 C-13.8457138 31.1542862 -13.8457138 31.1542862 -15 30 C-15.28188316 25.36045946 -15.2318207 20.7095829 -15.25 16.0625 C-15.270625 14.74830078 -15.29125 13.43410156 -15.3125 12.08007812 C-15.31765625 10.82775391 -15.3228125 9.57542969 -15.328125 8.28515625 C-15.34214355 6.55084351 -15.34214355 6.55084351 -15.35644531 4.78149414 C-15.23881836 3.86360107 -15.12119141 2.94570801 -15 2 C-10.32162971 -1.11891352 -5.48054548 -0.46793791 0 0 Z M-8 7 C-8 12.94 -8 18.88 -8 25 C0.31704512 25.87185729 0.31704512 25.87185729 3.625 23.125 C5.56254284 18.72149355 5.49167304 14.58378696 4 10 C2.49854706 8.02841265 2.49854706 8.02841265 0 7 C-2.64 7 -5.28 7 -8 7 Z " fill="#FBFBFB" transform="translate(16,167)"/>
<path d="M0 0 C0.97130859 -0.00128906 1.94261719 -0.00257813 2.94335938 -0.00390625 C4.47766602 0.00189453 4.47766602 0.00189453 6.04296875 0.0078125 C7.05423828 0.00394531 8.06550781 0.00007812 9.10742188 -0.00390625 C10.08259766 -0.00261719 11.05777344 -0.00132812 12.0625 0 C12.95686768 0.00112793 13.85123535 0.00225586 14.77270508 0.00341797 C17.23046875 0.1328125 17.23046875 0.1328125 21.23046875 1.1328125 C21.23046875 11.0328125 21.23046875 20.9328125 21.23046875 31.1328125 C20.90046875 31.1328125 20.57046875 31.1328125 20.23046875 31.1328125 C19.73546875 18.7578125 19.73546875 18.7578125 19.23046875 6.1328125 C18.90046875 6.4628125 18.57046875 6.7928125 18.23046875 7.1328125 C15.55988024 7.27396411 12.90614637 7.17528357 10.23046875 7.1328125 C10.23832397 8.1700647 10.23832397 8.1700647 10.24633789 9.22827148 C10.26704375 12.34227602 10.28010838 15.45626611 10.29296875 18.5703125 C10.30134766 19.65892578 10.30972656 20.74753906 10.31835938 21.86914062 C10.32319336 23.42084961 10.32319336 23.42084961 10.328125 25.00390625 C10.33598022 26.44141235 10.33598022 26.44141235 10.34399414 27.90795898 C10.23046875 30.1328125 10.23046875 30.1328125 9.23046875 31.1328125 C6.92046875 31.1328125 4.61046875 31.1328125 2.23046875 31.1328125 C2.23046875 23.2128125 2.23046875 15.2928125 2.23046875 7.1328125 C-0.07953125 7.1328125 -2.38953125 7.1328125 -4.76953125 7.1328125 C-5.42953125 6.4728125 -6.08953125 5.8128125 -6.76953125 5.1328125 C-6.01679494 0.16475285 -4.78564045 0.00605832 0 0 Z " fill="#F0F0F0" transform="translate(236.76953125,166.8671875)"/>
<path d="M0 0 C1.53527344 -0.01836914 1.53527344 -0.01836914 3.1015625 -0.03710938 C4.07867187 -0.03904297 5.05578125 -0.04097656 6.0625 -0.04296875 C7.41021484 -0.04913208 7.41021484 -0.04913208 8.78515625 -0.05541992 C11 0.1875 11 0.1875 13 2.1875 C12.46428571 5.72321429 12.46428571 5.72321429 11 7.1875 C8.69 7.1875 6.38 7.1875 4 7.1875 C4 15.1075 4 23.0275 4 31.1875 C-3 31.1875 -3 31.1875 -5 30.1875 C-5 22.5975 -5 15.0075 -5 7.1875 C-7.31 7.1875 -9.62 7.1875 -12 7.1875 C-13 6.1875 -13 6.1875 -13.0625 3.625 C-13.041875 2.820625 -13.02125 2.01625 -13 1.1875 C-9.11308052 -0.75595974 -4.27485419 0.00269197 0 0 Z " fill="#FAFAFA" transform="translate(94,166.8125)"/>
<path d="M0 0 C4.55555556 0.55555556 4.55555556 0.55555556 6 2 C6.09993532 4.0605531 6.13080906 6.1245259 6.1328125 8.1875 C6.13474609 10.07082031 6.13474609 10.07082031 6.13671875 11.9921875 C6.13357666 12.97783691 6.13357666 12.97783691 6.13037109 13.98339844 C6.12502234 15.99161335 6.13031691 17.99960459 6.13671875 20.0078125 C6.13542969 21.26335937 6.13414063 22.51890625 6.1328125 23.8125 C6.13168457 24.97394531 6.13055664 26.13539063 6.12939453 27.33203125 C6 30 6 30 5 31 C2.66702567 31.04092937 0.33294775 31.04241723 -2 31 C-2.04939115 26.90661348 -2.08571501 22.81334202 -2.10986328 18.71972656 C-2.11992877 17.32679219 -2.13358234 15.93387898 -2.15087891 14.54101562 C-2.1751022 12.5404564 -2.18540814 10.53974385 -2.1953125 8.5390625 C-2.20578613 7.33459473 -2.21625977 6.13012695 -2.22705078 4.88916016 C-2 2 -2 2 0 0 Z " fill="#FEFEFE" transform="translate(74,167)"/>
<path d="M0 0 C1.875 0.75 1.875 0.75 2.875 1.75 C2.97493532 3.8105531 3.00580906 5.8745259 3.0078125 7.9375 C3.00974609 9.82082031 3.00974609 9.82082031 3.01171875 11.7421875 C3.00857666 12.72783691 3.00857666 12.72783691 3.00537109 13.73339844 C3.00002234 15.74161335 3.00531691 17.74960459 3.01171875 19.7578125 C3.01042969 21.01335937 3.00914062 22.26890625 3.0078125 23.5625 C3.00668457 24.72394531 3.00555664 25.88539063 3.00439453 27.08203125 C2.875 29.75 2.875 29.75 1.875 30.75 C-1.125 30.875 -1.125 30.875 -4.125 30.75 C-6.83112706 28.04387294 -5.36015568 20.01928073 -5.375 16.375 C-5.395625 15.116875 -5.41625 13.85875 -5.4375 12.5625 C-5.44265625 11.35851562 -5.4478125 10.15453125 -5.453125 8.9140625 C-5.4624707 7.80498535 -5.47181641 6.6959082 -5.48144531 5.55322266 C-5.125 2.75 -5.125 2.75 -3.73730469 0.84912109 C-2.125 -0.25 -2.125 -0.25 0 0 Z " fill="#FEFEFE" transform="translate(290.125,167.25)"/>
<path d="M0 0 C1.65 0.33 3.3 0.66 5 1 C5 10.9 5 20.8 5 31 C3.02 31 1.04 31 -1 31 C-3.75551511 28.24448489 -2.18568203 19.78025429 -2.1875 16.0625 C-2.19974609 14.74830078 -2.21199219 13.43410156 -2.22460938 12.08007812 C-2.22750977 10.2015918 -2.22750977 10.2015918 -2.23046875 8.28515625 C-2.23457764 7.12894775 -2.23868652 5.97273926 -2.24291992 4.78149414 C-2 2 -2 2 0 0 Z " fill="#FEFEFE" transform="translate(32,167)"/>
<path d="" fill="#FFFFFF" transform="translate(0,0)"/>
<path d="" fill="#FFFFFF" transform="translate(0,0)"/>
</svg>
